<svg id="eA8etmxudrz1" xmlns="http://www.w3.org/2000/svg" xmlns:xlink="http://www.w3.org/1999/xlink" viewBox="0 0 500 25" shape-rendering="geometricPrecision" text-rendering="geometricPrecision"><line x1="-222.730642" y1="0" x2="222.730642" y2="0" transform="matrix(.370148 0 0 1 250 12.5)" fill="none" stroke="#532e1c" stroke-width="3"/><line x1="-222.730642" y1="0" x2="222.730642" y2="0" transform="matrix(.131843 0 0 1 373.560046 12.5)" fill="none" stroke="#532e1c" stroke-width="3"/><line x1="-222.730642" y1="0" x2="222.730642" y2="0" transform="matrix(.131843 0 0 1 126.439954 12.5)" fill="none" stroke="#532e1c" stroke-width="3"/><line x1="-222.730642" y1="0" x2="222.730642" y2="0" transform="matrix(.039033 0 0 1 32.875224 12.5)" fill="none" stroke="#532e1c" stroke-width="3"/><line x1="-222.730642" y1="0" x2="222.730642" y2="0" transform="matrix(.039033 0 0 1 467.863753 12.5)" fill="none" stroke="#532e1c" stroke-width="3"/><line x1="-222.730642" y1="0" x2="222.730642" y2="0" transform="matrix(.073501 0 0-1 431.047715 12.5)" fill="none" stroke="#532e1c" stroke-width="3"/><line x1="-222.730642" y1="0" x2="222.730642" y2="0" transform="matrix(.073501 0 0-1 68.952285 12.5)" fill="none" stroke="#532e1c" stroke-width="3"/><rect width="20.607404" height="20.607404" rx="0" ry="0" transform="matrix(.3996 0.3996-.3996 0.3996 250 4.265278)" fill="#532e1c" stroke-width="0"/></svg>
